<?xml version="1.0" encoding="UTF-8"?>
<!DOCTYPE svg PUBLIC "-//W3C//DTD SVG 1.1//EN" "http://www.w3.org/Graphics/SVG/1.1/DTD/svg11.dtd">
<!-- Creator: CorelDRAW X8 -->
<svg xmlns="http://www.w3.org/2000/svg" xml:space="preserve" width="93.7414mm" height="93.7414mm" version="1.1" style="shape-rendering:geometricPrecision; text-rendering:geometricPrecision; image-rendering:optimizeQuality; fill-rule:evenodd; clip-rule:evenodd"
viewBox="0 0 7849 7849"
 xmlns:xlink="http://www.w3.org/1999/xlink">
 <defs>
  <style type="text/css">
   <![CDATA[
    .fil0 {fill:none}
    .fil1 {fill:#373435}
    .fil6 {fill:#373435;fill-opacity:0.003922}
    .fil4 {fill:#373435;fill-opacity:0.039216}
    .fil5 {fill:#373435;fill-opacity:0.101961}
    .fil3 {fill:#373435;fill-opacity:0.149020}
    .fil2 {fill:#373435;fill-opacity:0.200000}
   ]]>
  </style>
 </defs>
 <g id="Camada_x0020_1">
  <metadata id="CorelCorpID_0Corel-Layer"/>
  <rect class="fil0" width="7849" height="7849"/>
  <g id="cards_x0028_1_x0029_.svg">
   <path class="fil1" d="M6659 4637l-2903 -2903 -1635 0 -1586 1585c-85,86 -85,225 0,311l3566 3566c85,85 225,85 310,-1l2248 -2248c86,-85 86,-224 0,-310z"/>
   <g>
    <path class="fil2" d="M3756 1734l-1635 0 -819 819 2446 4237c60,105 195,141 299,81l1630 -941 982 -983c86,-85 86,-224 0,-310l-2903 -2903z"/>
   </g>
   <g>
    <path class="fil3" d="M6659 4637l-2903 -2903 -1635 0 -1586 1585c-85,86 -85,225 0,311l3566 3566c85,85 225,85 310,-1l2248 -2248c86,-85 86,-224 0,-310z"/>
   </g>
   <path class="fil1" d="M6991 4981l-2243 -3884 -1554 0 -1778 1026c-104,61 -140,196 -80,300l2522 4367c60,105 195,141 299,81l2753 -1590c105,-60 141,-195 81,-300z"/>
   <g>
    <path class="fil4" d="M6991 4981l-2243 -3884 -1554 0 -848 489 1271 4741c31,116 152,186 268,155l1763 -472 1262 -729c105,-60 141,-195 81,-300z"/>
   </g>
   <g>
    <path class="fil5" d="M6991 4981l-2243 -3884 -1554 0 -1778 1026c-104,61 -140,196 -80,300l2522 4367c60,105 195,141 299,81l2753 -1590c105,-60 141,-195 81,-300z"/>
   </g>
   <path class="fil1" d="M7221 5391l-1287 -4801 -1129 0 -2229 597c-116,31 -186,152 -155,269l1305 4871c31,116 152,186 269,155l3071 -823c116,-31 186,-152 155,-268z"/>
   <g>
    <path class="fil6" d="M7221 5391l-1287 -4801 -1129 0 -2229 597c-116,31 -186,152 -155,269l1305 4871c31,116 152,186 269,155l3071 -823c116,-31 186,-152 155,-268z"/>
   </g>
   <g>
    <path class="fil2" d="M3651 5852c0,121 98,220 219,220l1657 0 1539 -413c116,-31 186,-152 155,-268l-1287 -4801 -1129 0 -1154 309 0 4953z"/>
   </g>
   <path class="fil1" d="M7378 5852c0,121 -99,220 -219,220l-3179 0c-121,0 -220,-99 -220,-220l0 -5043c0,-120 99,-219 220,-219l3179 0c120,0 219,99 219,219l0 5043z"/>
   <g>
    <path class="fil2" d="M7159 590l-110 0c121,0 219,99 219,219l0 5043c0,121 -98,220 -219,220l110 0c120,0 219,-99 219,-220l0 -5043c0,-120 -99,-219 -219,-219z"/>
   </g>
   <path class="fil1" d="M3979 590l110 0c-121,0 -219,99 -219,219l0 5043c0,121 98,220 219,220l-110 0c-120,0 -219,-99 -219,-220l0 -5043c0,-120 99,-219 219,-219z"/>
   <g>
    <path class="fil1" d="M1582 3824c43,43 43,112 0,155 -43,42 -112,42 -155,0 -43,-43 -43,-112 0,-155 43,-43 112,-44 155,0z"/>
    <path class="fil1" d="M7121 5376c51,51 51,132 0,182 -50,50 -131,50 -182,0 -50,50 -131,50 -182,0 -49,-50 -49,-132 0,-182l182 -182 182 182z"/>
    <g>
     <path id="SVGCleanerId_0" class="fil1" d="M6160 3057c162,163 162,427 0,590 -163,163 -428,163 -591,0 -163,163 -427,163 -590,0 -163,-163 -163,-427 0,-590l590 -590 591 590zm-156 435c78,-77 78,-203 0,-280l-435 -436 -435 436c-77,77 -77,203 0,280 74,74 205,75 280,0 43,-43 99,-64 155,-64 56,0 113,21 156,64 74,75 205,74 279,0z"/>
    </g>
   </g>
   <g>
    <g>
     <path id="SVGCleanerId_0_1_" class="fil5" d="M6160 3057c162,163 162,427 0,590 -163,163 -428,163 -591,0 -163,163 -427,163 -590,0 -163,-163 -163,-427 0,-590l590 -590 591 590zm-156 435c78,-77 78,-203 0,-280l-435 -436 -435 436c-77,77 -77,203 0,280 74,74 205,75 280,0 43,-43 99,-64 155,-64 56,0 113,21 156,64 74,75 205,74 279,0z"/>
    </g>
   </g>
   <g>
    <g>
     <path id="SVGCleanerId_0_2_" class="fil5" d="M6160 3057c162,163 162,427 0,590 -163,163 -428,163 -591,0 -163,163 -427,163 -590,0 -163,-163 -163,-427 0,-590l590 -590 591 590zm-156 435c78,-77 78,-203 0,-280l-435 -436 -435 436c-77,77 -77,203 0,280 74,74 205,75 280,0 43,-43 99,-64 155,-64 56,0 113,21 156,64 74,75 205,74 279,0z"/>
    </g>
   </g>
   <path class="fil1" d="M6004 3212c78,77 78,203 0,280 -74,74 -205,75 -279,0 -43,-43 -100,-64 -156,-64 -56,0 -112,21 -155,64 -75,75 -206,74 -280,0 -77,-77 -77,-203 0,-280l435 -436 435 436z"/>
   <g>
    <path class="fil2" d="M5243 3492c-85,-81 -117,-161 0,-280l381 -381 -55 -55 -435 436c-77,77 -77,203 0,280 51,51 127,66 195,48 -32,-9 -61,-25 -86,-48z"/>
   </g>
   <g>
    <path class="fil4" d="M5896 3492c85,-81 117,-161 0,-280l-327 -327 55 -55 381 382c77,77 77,203 0,280 -51,51 -127,66 -195,48 32,-9 61,-25 86,-48z"/>
   </g>
   <path class="fil1" d="M4381 1758c50,51 50,132 0,182 -51,50 -132,50 -182,0 -51,50 -132,50 -182,0 -50,-50 -50,-131 0,-182l182 -182 182 182z"/>
   <g>
    <path class="fil1" d="M3234 2074c61,35 82,114 47,176l-128 222 -223 -128c-61,-36 -83,-115 -47,-177 35,-61 114,-82 176,-46 35,-61 114,-83 175,-47z"/>
    <polygon class="fil1" points="2428,2992 2376,3338 2049,3211 2101,2864 "/>
   </g>
   <g>
    <path class="fil1" d="M1854 3862c42,43 42,112 0,155 -44,43 -113,43 -156,0 -43,-43 -43,-112 0,-155 43,-42 112,-42 156,0z"/>
    <path class="fil1" d="M1621 4095c43,43 42,111 -1,154 -43,43 -112,43 -154,0 -43,-43 -43,-111 0,-154 42,-43 111,-43 155,0z"/>
   </g>
   <g>
    <path class="fil2" d="M5089 3648c-164,-163 -164,-427 0,-591l535 -535 -55 -55 -590 590c-163,164 -163,428 0,591 95,95 225,133 350,117 -88,-12 -173,-50 -240,-117z"/>
   </g>
   <g>
    <path class="fil2" d="M6050 3648c163,-163 163,-427 0,-591l-481 -480 55 -55 535 535c164,164 164,428 0,591 -95,95 -225,133 -349,117 88,-12 172,-50 240,-117z"/>
   </g>
   <g>
    <path class="fil1" d="M7159 6126l-3179 0c-152,0 -275,-123 -275,-274l0 -5043c0,-151 123,-274 275,-274l3179 0c151,0 274,123 274,274l0 5043c0,151 -123,274 -274,274zm-3179 -5481c-91,0 -165,73 -165,164l0 5043c0,91 74,165 165,165l3179 0c90,0 164,-74 164,-165l0 -5043c0,-91 -74,-164 -164,-164l-3179 0z"/>
    <path class="fil1" d="M4089 1412c-30,0 -55,-24 -55,-55l0 -329c0,-30 25,-54 55,-54 30,0 55,24 55,54l0 329c0,31 -25,55 -55,55z"/>
    <path class="fil1" d="M4308 1412c-30,0 -54,-24 -54,-55l0 -329c0,-30 24,-54 54,-54 31,0 55,24 55,54l0 329c0,31 -24,55 -55,55z"/>
    <path class="fil1" d="M4272 1303l-146 0c-31,0 -55,-25 -55,-55 0,-31 24,-55 55,-55l146 0c30,0 55,24 55,55 0,30 -25,55 -55,55z"/>
    <path class="fil1" d="M4089 1083c-14,0 -28,-5 -39,-16 -21,-21 -21,-56 0,-77l110 -110c21,-21 56,-21 78,0 21,21 21,56 0,78l-110 109c-11,11 -25,16 -39,16z"/>
    <path class="fil1" d="M4308 1083c-14,0 -28,-5 -38,-16l-110 -109c-21,-22 -21,-57 0,-78 21,-21 56,-21 78,0l109 110c22,21 22,56 0,77 -11,11 -25,16 -39,16z"/>
    <path class="fil1" d="M4290 2032c-33,0 -64,-8 -91,-24 -69,40 -163,28 -221,-29 -71,-72 -71,-188 0,-260l182 -181c21,-22 56,-22 78,0l181 181c72,72 72,188 0,260 -34,34 -80,53 -129,53zm-91 -147c14,0 28,5 39,16 27,28 76,28 104,0 28,-28 28,-75 0,-104l-143 -143 -143 143c-29,29 -29,76 0,104 28,28 76,28 104,0 11,-11 25,-16 39,-16z"/>
    <path class="fil1" d="M4308 2180l-219 0c-30,0 -55,-25 -55,-55 0,-31 25,-55 55,-55l219 0c31,0 55,24 55,55 0,30 -24,55 -55,55z"/>
    <path class="fil1" d="M4199 2180c-31,0 -55,-25 -55,-55l0 -55c0,-30 24,-55 55,-55 30,0 55,25 55,55l0 55c0,30 -25,55 -55,55z"/>
    <path class="fil1" d="M6830 5030c-30,0 -55,-25 -55,-55l0 -329c0,-30 25,-55 55,-55 30,0 55,25 55,55l0 329c0,30 -25,55 -55,55z"/>
    <path class="fil1" d="M7049 5030c-30,0 -55,-25 -55,-55l0 -329c0,-30 25,-55 55,-55 30,0 55,25 55,55l0 329c0,30 -25,55 -55,55z"/>
    <path class="fil1" d="M7013 4920l-146 0c-31,0 -55,-24 -55,-54 0,-31 24,-55 55,-55l146 0c30,0 54,24 54,55 0,30 -24,54 -54,54z"/>
    <path class="fil1" d="M6830 4701c-14,0 -28,-5 -39,-16 -21,-21 -21,-56 0,-77l110 -110c21,-21 56,-21 77,0 22,21 22,56 0,77l-109 110c-11,11 -25,16 -39,16z"/>
    <path class="fil1" d="M7049 4701c-14,0 -28,-5 -39,-16l-109 -110c-22,-21 -22,-56 0,-77 21,-21 56,-21 77,0l110 110c21,21 21,56 0,77 -11,11 -25,16 -39,16z"/>
    <path class="fil1" d="M7030 5650c-32,0 -63,-8 -90,-24 -69,40 -163,28 -221,-29 -71,-72 -71,-188 0,-260l182 -181c21,-22 56,-22 77,0l182 181c71,72 71,188 0,259 -35,35 -81,54 -130,54zm-90 -147c14,0 28,5 38,16 28,28 77,28 105,0 28,-29 28,-76 -1,-104l-142 -143 -143 143c-29,29 -29,75 0,104 27,27 76,28 104,0 11,-11 25,-16 39,-16z"/>
    <path class="fil1" d="M7049 5797l-219 0c-30,0 -55,-24 -55,-54 0,-31 25,-55 55,-55l219 0c30,0 55,24 55,55 0,30 -25,54 -55,54z"/>
    <path class="fil1" d="M6940 5797c-31,0 -55,-24 -55,-54l0 -55c0,-31 24,-55 55,-55 30,0 54,24 54,55l0 55c0,30 -24,54 -54,54z"/>
    <path class="fil1" d="M5864 3824c-108,0 -211,-36 -295,-104 -83,68 -186,104 -295,104 -126,0 -245,-49 -334,-138 -184,-184 -184,-484 0,-668l591 -590c21,-22 56,-22 77,0l590 590c185,184 185,484 0,668 -89,89 -207,138 -334,138zm-295 -232c14,0 28,5 39,16 137,137 376,137 513,0 141,-141 141,-371 0,-513l-552 -551 -551 551c-142,142 -142,372 0,513 137,137 376,137 513,0 10,-11 24,-16 38,-16z"/>
    <path class="fil1" d="M5864 3603c-67,0 -133,-26 -178,-72 -63,-62 -171,-62 -233,0 -46,45 -111,72 -179,72l0 0c-68,0 -133,-27 -179,-72 -98,-99 -98,-259 0,-358l436 -435c21,-22 56,-22 77,0l435 435c99,98 99,259 1,358 -47,45 -112,72 -180,72zm-295 -230c73,0 142,28 194,80 51,51 152,51 203,0 56,-56 56,-147 0,-203l-397 -396 -396 396c-56,56 -56,147 0,203 25,26 62,40 101,40l0 0c39,0 76,-14 102,-40 51,-52 120,-80 193,-80z"/>
    <path class="fil1" d="M5953 4153l-768 0c-30,0 -54,-25 -54,-55 0,-30 24,-55 54,-55l768 0c30,0 55,25 55,55 0,30 -25,55 -55,55z"/>
    <path class="fil1" d="M5569 4153c-30,0 -55,-25 -55,-55l0 -219c0,-30 25,-55 55,-55 30,0 55,25 55,55l0 219c0,30 -25,55 -55,55z"/>
    <path class="fil1" d="M3943 6545c-47,0 -94,-12 -137,-37 -63,-36 -109,-96 -127,-166l-1306 -4871c-39,-146 48,-297 194,-336l1010 -270c29,-7 59,9 67,38 8,30 -10,60 -39,68l-1010 270c-87,24 -139,114 -116,202l1305 4870c12,43 39,78 77,100 38,22 83,29 125,17l921 -247c30,-7 60,9 68,39 7,29 -10,59 -39,67l-922 247c-23,6 -47,9 -71,9z"/>
    <path class="fil1" d="M2886 1956c-24,0 -47,-16 -53,-41l-114 -423c-7,-30 10,-60 39,-68 29,-7 59,10 67,39l114 424c8,29 -10,59 -39,67 -5,1 -10,2 -14,2z"/>
    <path class="fil1" d="M2829 1744c-24,0 -46,-16 -53,-41 -8,-29 10,-59 39,-67l106 -28c29,-8 59,9 67,38 8,30 -10,60 -39,68l-106 28c-5,1 -9,2 -14,2z"/>
    <path class="fil1" d="M3152 2527c-9,0 -19,-3 -27,-8l-223 -128c-87,-51 -117,-163 -67,-251 41,-70 128,-106 206,-85 56,-56 150,-69 220,-29 43,25 73,64 86,112 12,47 6,96 -19,139l-128 222c-8,13 -20,22 -34,26 -4,1 -9,2 -14,2zm-158 -369c-26,0 -51,14 -64,37 -20,35 -8,81 27,101l175 101 101 -175c10,-17 13,-37 8,-56 -5,-19 -18,-35 -35,-45 -34,-19 -81,-7 -100,27 -15,26 -49,36 -75,20 -11,-6 -24,-10 -37,-10z"/>
    <path class="fil1" d="M2935 1716c-4,0 -7,-1 -11,-2 -30,-6 -49,-35 -43,-64l49 -240c6,-30 35,-49 65,-43 30,6 49,35 43,65l-49 240c-6,26 -28,44 -54,44z"/>
    <path class="fil1" d="M3098 1899c-16,0 -31,-6 -42,-18l-162 -184c-20,-23 -18,-57 5,-77 22,-20 57,-18 77,4l163 184c20,23 18,57 -5,77 -11,10 -24,14 -36,14z"/>
    <path class="fil1" d="M4050 6950c-95,0 -188,-49 -238,-137l-2522 -4367c-36,-63 -46,-137 -27,-208 19,-71 64,-130 128,-166l879 -508c26,-15 60,-6 75,20 15,26 6,60 -20,75l-880 508c-37,21 -65,57 -76,100 -11,42 -6,86 16,124l2522 4368c45,78 146,105 225,60l831 -480c26,-15 59,-6 74,20 16,26 7,60 -20,75l-831 480c-43,25 -90,36 -136,36z"/>
    <path class="fil1" d="M1897 2784c-19,0 -38,-10 -48,-28l-219 -379c-15,-27 -6,-60 20,-75 26,-16 60,-6 75,20l219 380c15,26 6,59 -20,74 -9,5 -18,8 -27,8z"/>
    <path class="fil1" d="M1677 2404c-19,0 -37,-10 -47,-27 -15,-27 -6,-60 20,-75l190 -110c26,-15 60,-6 75,20 15,26 6,60 -20,75l-190 110c-9,5 -18,7 -28,7z"/>
    <path class="fil1" d="M2087 2674c-19,0 -38,-10 -48,-27l-219 -380c-15,-26 -6,-60 20,-75 26,-15 60,-6 75,20l219 380c15,26 6,60 -20,75 -9,5 -18,7 -27,7z"/>
    <path class="fil1" d="M1897 2784c-19,0 -38,-10 -48,-28 -15,-26 -6,-59 20,-74l190 -110c26,-15 60,-6 75,20 15,26 6,60 -20,75l-190 109c-9,5 -18,8 -27,8z"/>
    <path class="fil1" d="M2182 2619c-5,0 -10,0 -15,-1l-299 -81c-30,-8 -47,-38 -39,-67 8,-29 38,-46 67,-39l300 81c29,7 46,37 38,67 -6,24 -28,40 -52,40z"/>
    <path class="fil1" d="M2375 3394c-6,0 -13,-2 -20,-4l-327 -128c-23,-9 -38,-34 -34,-59l53 -347c3,-17 13,-31 27,-39 15,-9 32,-10 47,-4l327 127c24,10 38,34 34,60l-52 347c-3,16 -13,31 -27,39 -9,5 -18,8 -28,8zm-266 -218l223 87 35 -236 -222 -87 -36 236z"/>
    <path class="fil1" d="M4256 7314c-70,0 -140,-26 -193,-80l-3566 -3566c-52,-51 -80,-120 -81,-193 0,-74 29,-143 80,-194l719 -718c21,-22 56,-22 77,0 22,21 22,56 0,77l-718 718c-31,31 -48,72 -48,116 0,45 17,86 48,117l3566 3566c64,64 168,64 233,0l680 -680c21,-22 56,-22 77,0 22,21 22,56 0,77l-680 680c-53,54 -124,80 -194,80z"/>
    <path class="fil1" d="M1233 3607c-14,0 -28,-5 -39,-16l-227 -228c-22,-21 -22,-56 0,-77 21,-22 56,-22 77,0l228 227c21,22 21,56 0,78 -11,11 -25,16 -39,16z"/>
    <path class="fil1" d="M1233 3762c-30,0 -55,-25 -55,-55l0 -155c0,-30 25,-55 55,-55 30,0 55,25 55,55l0 155c0,30 -25,55 -55,55z"/>
    <path class="fil1" d="M1233 3762l-155 0c-30,0 -55,-25 -55,-55 0,-30 25,-55 55,-55l155 0c30,0 55,25 55,55 0,30 -25,55 -55,55z"/>
    <path class="fil1" d="M923 3452c-14,0 -28,-5 -39,-16 -21,-22 -21,-56 0,-78l155 -155c22,-21 56,-21 78,0 21,22 21,56 0,78l-155 155c-11,11 -25,16 -39,16z"/>
    <path class="fil1" d="M1543 4337c-44,0 -85,-17 -116,-48 -31,-32 -48,-73 -48,-117 0,-44 17,-85 48,-116 62,-62 170,-62 232,0 64,64 64,168 0,233 -31,31 -72,48 -116,48zm0 -220c-15,0 -28,6 -39,17 -10,10 -16,23 -16,38 0,15 6,29 16,39 21,21 57,21 78,0 21,-21 21,-56 0,-77 -10,-11 -24,-17 -39,-17z"/>
    <path class="fil1" d="M1776 4104c-44,0 -86,-17 -117,-48 -31,-31 -48,-72 -48,-116 0,-44 17,-86 48,-117 62,-62 171,-62 233,0 64,65 64,169 0,233 -31,31 -73,48 -116,48zm0 -219c-15,0 -29,6 -39,16 -11,10 -16,24 -16,39 0,14 6,28 16,39 20,20 57,20 77,-1 22,-21 22,-56 0,-77 -10,-10 -24,-16 -38,-16z"/>
    <path class="fil1" d="M1504 4065c-44,0 -85,-17 -116,-48 -31,-31 -48,-72 -48,-116 0,-44 17,-85 48,-116 63,-62 171,-62 233,0 64,64 64,168 0,232 -32,31 -73,48 -117,48zm1 -219c-15,0 -29,6 -40,16 -10,11 -16,24 -16,39 0,15 6,28 17,39 20,20 56,20 77,0 21,-22 21,-57 0,-78 -10,-10 -24,-16 -38,-16z"/>
    <path class="fil1" d="M1737 4421c-14,0 -28,-6 -39,-16 -21,-22 -21,-56 0,-78l233 -232c21,-22 56,-22 77,0 22,21 22,56 0,77l-232 233c-11,10 -25,16 -39,16z"/>
    <path class="fil1" d="M1853 4305c-14,0 -28,-6 -39,-16l-116 -117c-21,-21 -21,-56 0,-77 22,-22 56,-22 78,0l116 116c21,21 21,56 0,78 -11,10 -25,16 -39,16z"/>
   </g>
   <g>
   </g>
   <g>
   </g>
   <g>
   </g>
   <g>
   </g>
   <g>
   </g>
   <g>
   </g>
   <g>
   </g>
   <g>
   </g>
   <g>
   </g>
   <g>
   </g>
   <g>
   </g>
   <g>
   </g>
   <g>
   </g>
   <g>
   </g>
   <g>
   </g>
  </g>
 </g>
</svg>
